<svg xmlns="http://www.w3.org/2000/svg" version="1.1" xmlns:xlink="http://www.w3.org/1999/xlink"
   xmlns:svgjs="http://svgjs.dev/svgjs" width="2000" height="2250" viewBox="0 0 2000 2250">
   <g transform="matrix(1,0,0,1,0,0)"><svg viewBox="0 0 320 360" data-background-color="#102e44"
         preserveAspectRatio="xMidYMid meet" height="2250" width="2000" xmlns="http://www.w3.org/2000/svg"
         xmlns:xlink="http://www.w3.org/1999/xlink">
         <g id="tight-bounds" transform="matrix(1,0,0,1,0,0)"><svg viewBox="0 0 320 360" height="360" width="320">
               <g><svg></svg></g>
               <g><svg viewBox="0 0 320 360" height="360" width="320">
                     <g>
                        <path
                           d="M297.491 100.645c-12.426-21.51-112.674-79.355-137.491-79.355-24.817 0-125.028 57.845-137.491 79.355-11.591 20.02-11.591 138.726 0 158.746 12.463 21.474 112.674 79.319 137.491 79.319 24.817 0 125.064-57.845 137.491-79.355 11.591-20.02 11.591-138.69 0-158.71zM309.481 93.705c-14.461-24.998-119.469-86.295-149.481-86.295-30.012 0-135.02 61.297-149.481 86.295-14.025 24.199-14.025 148.391 0 172.59 14.461 24.998 119.469 86.295 149.481 86.295 30.012 0 135.02-61.297 149.481-86.259 14.025-24.235 14.025-148.427 0-172.626zM300.906 261.353c-12.753 22.055-115.472 81.317-140.906 81.318-25.434 0-128.153-59.298-140.906-81.354-11.881-20.529-11.881-142.178 0-162.707 12.753-22.019 115.472-81.281 140.906-81.281 25.434 0 128.153 59.298 140.906 81.318 11.881 20.529 11.881 142.178 0 162.706z"
                           fill="#ffffff" fill-rule="nonzero" stroke="none" stroke-width="1" stroke-linecap="butt"
                           stroke-linejoin="miter" stroke-miterlimit="10" stroke-dasharray="" stroke-dashoffset="0"
                           font-family="none" font-weight="none" font-size="none" text-anchor="none"
                           style="mix-blend-mode: normal" data-fill-palette-color="tertiary"></path>
                     </g>
                     <g transform="matrix(1,0,0,1,66.9142857142857,90)"><svg viewBox="0 0 186.1714285714286 180"
                           height="180" width="186.1714285714286">
                           <g><svg viewBox="0 0 186.1714285714286 180" height="180" width="186.1714285714286">
                                 <g><svg viewBox="0 0 186.1714285714286 180" height="180" width="186.1714285714286">
                                       <g id="textblocktransform"><svg viewBox="0 0 186.1714285714286 180" height="180"
                                             width="186.1714285714286" id="textblock">
                                             <g><svg viewBox="0 0 186.1714285714286 180" height="180"
                                                   width="186.1714285714286">
                                                   <g transform="matrix(1,0,0,1,0,0)"><svg width="186.1714285714286"
                                                         viewBox="4.2 -35 36.199999999999996 35" height="180"
                                                         data-palette-color="#102e44">
                                                         <path
                                                            d="M40.4-5L40.4 0 4.2 0 4.2-35 40.4-35 40.4-30 9.2-30 9.2-5 40.4-5ZM36.15-20L36.15-15 11.7-15 11.7-20 36.15-20Z"
                                                            opacity="1" transform="matrix(1,0,0,1,0,0)" fill="#102e44"
                                                            class="wordmark-text-0" data-fill-palette-color="quaternary"
                                                            id="text-0"></path>
                                                      </svg></g>
                                                </svg></g>
                                          </svg></g>
                                    </svg></g>
                              </svg></g>
                        </svg></g>
                  </svg></g>
               <defs></defs>
            </svg>
            <rect width="320" height="360" fill="none" stroke="none" visibility="hidden"></rect>
         </g>
      </svg></g>
</svg>